# xmcd
#
# Track frame offsets: 
#        150
#        14107
#        20531
#        45301
#        75158
#        102808
#        119960
#        137570
#        149273
#        172975
#        216063
#
# Disc length: 3131 seconds
#
# Revision: 0
# Processed by: cddbd v1.5.2PL0 Copyright (c) Steve Scherf et al.
# Submitted via: ExactAudioCopyFreeDBPlugin 1.0
#
DISCID=8f0c390b
DTITLE=Flávio Guimarães - On The Loose
DYEAR=2000
DGENRE=Blues
TTITLE0=Checkin' On My Baby
TTITLE1=On The Loose
TTITLE2=Keep It To Yourself
TTITLE3=Berimbau Nao E Gaita
TTITLE4=Baby What You Want Me To Do
TTITLE5=Boogie Pro Rafa
TTITLE6=You Was Wrong
TTITLE7=Blowin' The Family Jewels
TTITLE8=Rock With Me
TTITLE9=A Tribute To William Clarke
TTITLE10=Jam For Big Walter
EXTD=
EXTT0=
EXTT1=
EXTT2=
EXTT3=
EXTT4=
EXTT5=
EXTT6=
EXTT7=
EXTT8=
EXTT9=
EXTT10=
PLAYORDER=
